<svg xmlns="http://www.w3.org/2000/svg" height="20px" viewBox="0 -960 960 960" width="20px" fill="#75FB4C"><path d="M331.07-126.22q-70.22-30.22-122.65-82.5Q156-261 126-331.18q-30-70.19-30-149.5 0-79.32 30.21-148.85 30.21-69.52 82.49-121.79 52.27-52.26 122.28-82.47Q401-864 480.35-864q79.35 0 149.08 30.22 69.73 30.22 122.15 82.5T834-629.31q30 69.7 30 149 0 79.31-30.21 149.33-30.21 70.01-82.47 122.28-52.27 52.28-121.79 82.49Q560-96 480.64-96q-79.35 0-149.57-30.22ZM650-310q70-70 70-170t-70-170q-70-70-170-70t-170 70q-70 70-70 170t70 170q70 70 170 70t170-70Z"/></svg>