<svg xmlns="http://www.w3.org/2000/svg" height="20px" viewBox="0 -960 960 960" width="20px" fill="#000000"><path d="M576-696v-72h288v72H576Zm0 156v-72h288v72H576Zm0 156v-72h288v72H576Zm-325-83q-35-35-35-85t35-85q35-35 85-35t85 35q35 35 35 85t-35 85q-35 35-85 35t-85-35ZM96-192v-63q0-28 14.5-51t38.5-35q43-21 90-32t97-11q50 0 97 11t90 32q24 12 38.5 35t14.5 51v63H96Zm73-72h334q-30-23-72-35.5T336-312q-53 0-95 12.5T169-264Zm201-254q14-14 14-34t-14-34q-14-14-34-14t-34 14q-14 14-14 34t14 34q14 14 34 14t34-14Zm-34-34Zm0 288Z"/></svg>